<svg xmlns="http://www.w3.org/2000/svg" viewBox="0 0 47.5 47.5" id="cake"><defs><clipPath id="a"><path d="M0 38h38V0H0v38Z"></path></clipPath></defs><g clip-path="url(#a)" transform="matrix(1.25 0 0 -1.25 0 47.5)"><path fill="#939598" d="M37 12c0-5.522-8.059-10-18-10S1 6.478 1 12s8.059 10 18 10 18-4.478 18-10"></path><path fill="#f1f2f2" d="M37 14c0-5.522-8.059-10-18-10S1 8.478 1 14s8.059 10 18 10 18-4.478 18-10"></path><path fill="#ccd6dd" d="M33.8 15c0-4.54-6.626-8.223-14.8-8.223S4.2 10.46 4.2 15c0 4.541 6.626 8.222 14.8 8.222S33.8 19.541 33.8 15"></path><path fill="#8a4b38" d="M30 15c0-3.068-4.926-5.556-11-5.556-6.075 0-11 2.488-11 5.556s4.925 5.556 11 5.556c6.074 0 11-2.488 11-5.556"></path><path fill="#ad5540" d="M32.403 14.957c0-3.891-6.001-7.044-13.403-7.044-7.403 0-13.404 3.153-13.404 7.044C5.596 18.846 11.597 22 19 22c7.402 0 13.403-3.154 13.403-7.043"></path><path fill="#662113" d="M32 16c0-9-26-9-26 0v8h26v-8Z"></path><path fill="#ad5540" d="M32.403 24.956c0-3.89-6.001-7.043-13.403-7.043-7.403 0-13.404 3.153-13.404 7.043S11.597 31.999 19 31.999c7.402 0 13.403-3.153 13.403-7.043"></path><path fill="#88c9f9" d="M12 24a1 1 0 0 0-1 1v7a1 1 0 0 0 2 0v-7a1 1 0 0 0-1-1M19 21a1 1 0 0 0-1 1v7a1 1 0 0 0 2 0v-7a1 1 0 0 0-1-1M26 24a1 1 0 0 0-1 1v7a1 1 0 1 0 2 0v-7a1 1 0 0 0-1-1"></path><path fill="#ffac33" d="M26 30.5c-1.062 0-1.896.486-2.233 1.299-.292.706-.438 2.238 1.879 4.555a.502.502 0 0 0 .708 0c2.317-2.317 2.171-3.849 1.879-4.555-.337-.813-1.171-1.299-2.233-1.299M19 27.5c-1.062 0-1.896.486-2.233 1.299-.293.706-.437 2.238 1.879 4.555a.502.502 0 0 0 .708 0c2.317-2.317 2.171-3.849 1.879-4.555-.337-.813-1.171-1.299-2.233-1.299M12 30.5c-1.062 0-1.896.486-2.233 1.299-.293.706-.437 2.238 1.879 4.555a.502.502 0 0 0 .708 0c2.316-2.317 2.172-3.849 1.879-4.555-.337-.813-1.171-1.299-2.233-1.299"></path></g></svg>